TITLE ""
FILE "2Q_k_071-080.mp3" MP3
  TRACK 01 AUDIO
    TITLE "2Q_k_071-080_01"
    INDEX 01 00:00:00
  TRACK 02 AUDIO
    TITLE "2Q_k_071-080_02"
    INDEX 01 00:01:23
  TRACK 03 AUDIO
    TITLE "2Q_k_071-080_03"
    INDEX 01 00:01:69
  TRACK 04 AUDIO
    TITLE "2Q_k_071-080_04"
    INDEX 01 00:04:14
  TRACK 05 AUDIO
    TITLE "2Q_k_071-080_05"
    INDEX 01 00:04:59
  TRACK 06 AUDIO
    TITLE "2Q_k_071-080_06"
    INDEX 01 00:07:46
  TRACK 07 AUDIO
    TITLE "2Q_k_071-080_07"
    INDEX 01 00:11:04
  TRACK 08 AUDIO
    TITLE "2Q_k_071-080_08"
    INDEX 01 00:11:51
  TRACK 09 AUDIO
    TITLE "2Q_k_071-080_09"
    INDEX 01 00:13:11
  TRACK 10 AUDIO
    TITLE "2Q_k_071-080_10"
    INDEX 01 00:13:58
  TRACK 11 AUDIO
    TITLE "2Q_k_071-080_11"
    INDEX 01 00:15:18
  TRACK 12 AUDIO
    TITLE "2Q_k_071-080_12"
    INDEX 01 00:15:63
  TRACK 13 AUDIO
    TITLE "2Q_k_071-080_13"
    INDEX 01 00:19:39
  TRACK 14 AUDIO
    TITLE "2Q_k_071-080_14"
    INDEX 01 00:22:41
  TRACK 15 AUDIO
    TITLE "2Q_k_071-080_15"
    INDEX 01 00:23:15
  TRACK 16 AUDIO
    TITLE "2Q_k_071-080_16"
    INDEX 01 00:25:22
  TRACK 17 AUDIO
    TITLE "2Q_k_071-080_17"
    INDEX 01 00:25:67
  TRACK 18 AUDIO
    TITLE "2Q_k_071-080_18"
    INDEX 01 00:29:02
  TRACK 19 AUDIO
    TITLE "2Q_k_071-080_19"
    INDEX 01 00:29:49
  TRACK 20 AUDIO
    TITLE "2Q_k_071-080_20"
    INDEX 01 00:36:16
  TRACK 21 AUDIO
    TITLE "2Q_k_071-080_21"
    INDEX 01 00:36:63
  TRACK 22 AUDIO
    TITLE "2Q_k_071-080_22"
    INDEX 01 00:38:19
  TRACK 23 AUDIO
    TITLE "2Q_k_071-080_23"
    INDEX 01 00:38:64
  TRACK 24 AUDIO
    TITLE "2Q_k_071-080_24"
    INDEX 01 00:40:47
  TRACK 25 AUDIO
    TITLE "2Q_k_071-080_25"
    INDEX 01 00:41:19
  TRACK 26 AUDIO
    TITLE "2Q_k_071-080_26"
    INDEX 01 00:43:69
  TRACK 27 AUDIO
    TITLE "2Q_k_071-080_27"
    INDEX 01 00:46:34
  TRACK 28 AUDIO
    TITLE "2Q_k_071-080_28"
    INDEX 01 00:48:74
  TRACK 29 AUDIO
    TITLE "2Q_k_071-080_29"
    INDEX 01 00:49:46
  TRACK 30 AUDIO
    TITLE "2Q_k_071-080_30"
    INDEX 01 00:51:17
  TRACK 31 AUDIO
    TITLE "2Q_k_071-080_31"
    INDEX 01 00:51:64
  TRACK 32 AUDIO
    TITLE "2Q_k_071-080_32"
    INDEX 01 00:53:50
  TRACK 33 AUDIO
    TITLE "2Q_k_071-080_33"
    INDEX 01 00:54:24
  TRACK 34 AUDIO
    TITLE "2Q_k_071-080_34"
    INDEX 01 00:57:40
  TRACK 35 AUDIO
    TITLE "2Q_k_071-080_35"
    INDEX 01 01:01:04
  TRACK 36 AUDIO
    TITLE "2Q_k_071-080_36"
    INDEX 01 01:01:57
  TRACK 37 AUDIO
    TITLE "2Q_k_071-080_37"
    INDEX 01 01:03:46
  TRACK 38 AUDIO
    TITLE "2Q_k_071-080_38"
    INDEX 01 01:04:18
  TRACK 39 AUDIO
    TITLE "2Q_k_071-080_39"
    INDEX 01 01:06:13
  TRACK 40 AUDIO
    TITLE "2Q_k_071-080_40"
    INDEX 01 01:06:60
  TRACK 41 AUDIO
    TITLE "2Q_k_071-080_41"
    INDEX 01 01:08:73
  TRACK 42 AUDIO
    TITLE "2Q_k_071-080_42"
    INDEX 01 01:10:64
  TRACK 43 AUDIO
    TITLE "2Q_k_071-080_43"
    INDEX 01 01:11:32
  TRACK 44 AUDIO
    TITLE "2Q_k_071-080_44"
    INDEX 01 01:13:39
  TRACK 45 AUDIO
    TITLE "2Q_k_071-080_45"
    INDEX 01 01:14:13
  TRACK 46 AUDIO
    TITLE "2Q_k_071-080_46"
    INDEX 01 01:16:41
  TRACK 47 AUDIO
    TITLE "2Q_k_071-080_47"
    INDEX 01 01:17:13
  TRACK 48 AUDIO
    TITLE "2Q_k_071-080_48"
    INDEX 01 01:21:73
  TRACK 49 AUDIO
    TITLE "2Q_k_071-080_49"
    INDEX 01 01:24:44
  TRACK 50 AUDIO
    TITLE "2Q_k_071-080_50"
    INDEX 01 01:25:18
  TRACK 51 AUDIO
    TITLE "2Q_k_071-080_51"
    INDEX 01 01:26:55
  TRACK 52 AUDIO
    TITLE "2Q_k_071-080_52"
    INDEX 01 01:27:31
  TRACK 53 AUDIO
    TITLE "2Q_k_071-080_53"
    INDEX 01 01:30:43
  TRACK 54 AUDIO
    TITLE "2Q_k_071-080_54"
    INDEX 01 01:31:13
  TRACK 55 AUDIO
    TITLE "2Q_k_071-080_55"
    INDEX 01 01:34:35
  TRACK 56 AUDIO
    TITLE "2Q_k_071-080_56"
    INDEX 01 01:36:02
  TRACK 57 AUDIO
    TITLE "2Q_k_071-080_57"
    INDEX 01 01:36:48
  TRACK 58 AUDIO
    TITLE "2Q_k_071-080_58"
    INDEX 01 01:38:50
  TRACK 59 AUDIO
    TITLE "2Q_k_071-080_59"
    INDEX 01 01:39:22
  TRACK 60 AUDIO
    TITLE "2Q_k_071-080_60"
    INDEX 01 01:41:21
  TRACK 61 AUDIO
    TITLE "2Q_k_071-080_61"
    INDEX 01 01:41:64
  TRACK 62 AUDIO
    TITLE "2Q_k_071-080_62"
    INDEX 01 01:44:27
  TRACK 63 AUDIO
    TITLE "2Q_k_071-080_63"
    INDEX 01 01:46:26
  TRACK 64 AUDIO
    TITLE "2Q_k_071-080_64"
    INDEX 01 01:46:71
  TRACK 65 AUDIO
    TITLE "2Q_k_071-080_65"
    INDEX 01 01:48:68
  TRACK 66 AUDIO
    TITLE "2Q_k_071-080_66"
    INDEX 01 01:49:40
  TRACK 67 AUDIO
    TITLE "2Q_k_071-080_67"
    INDEX 01 01:51:73
  TRACK 68 AUDIO
    TITLE "2Q_k_071-080_68"
    INDEX 01 01:52:43
  TRACK 69 AUDIO
    TITLE "2Q_k_071-080_69"
    INDEX 01 01:55:61
  TRACK 70 AUDIO
    TITLE "2Q_k_071-080_70"
    INDEX 01 01:59:64
